<svg data-testid="DownloadIcon" height="20" width="15" viewBox="0 0 20 15">
  <title>Download</title>
  <path d="M9.627 0a.274.274 0 01.195.092l5.1 5.591c.05.053.079.125.078.2v13.834c0 .156-.12.283-.266.283H.266C.12 20 0 19.873 0 19.717V.283C0 .127.12 0 .266 0zM8.319 1.667H1.567v16.666h11.898V6.908H8.554a.275.275 0 01-.235-.241v-5zM7.856 8a.133.133 0 01.105.044c.029.03.045.073.045.117v4.037h1.846c.058.001.11.04.135.1.024.06.015.13-.023.18l-2.856 3.47a.135.135 0 01-.104.052.135.135 0 01-.105-.052l-2.863-3.47a.187.187 0 01-.024-.177c.022-.059.072-.099.129-.103h1.846V8.161c0-.044.016-.086.044-.117A.133.133 0 016.137 8zm1.966-5.65v2.892l2.546.041L9.822 2.35z"/>
</svg>