<svg data-testid="PeopleIcon" fill="#000" fill-rule="nonzero" height="20" width="20" viewBox="0 0 20 20">
  <title>People</title>
  <path d="M16.57 4.36a3.93 3.93 0 0 1-3.85 4.14 4.14 4.14 0 0 1-1.12-.11 5.65 5.65 0 0 0 1.52-4.08A5.61 5.61 0 0 0 11.63.63a4.27 4.27 0 0 1 .81-.1 3.88 3.88 0 0 1 4.13 3.83zM20 19.08h-3.37l-.11-.43-1.27-4.85v-.11a6.75 6.75 0 0 0-2.43-3.26c2.6 0 5.2 1.49 6 3.79L20 19.08zM7.45.53h-.14a3.83 3.83 0 0 0-3.83 4.12 3.88 3.88 0 0 0 4 3.85h.15a3.94 3.94 0 0 0 3.85-4.14A3.87 3.87 0 0 0 7.45.53zm.08 6.13h-.09a2 2 0 0 1-2.12-2.07A2.14 2.14 0 0 1 5.86 3a2 2 0 0 1 1.51-.62h.08A2 2 0 0 1 9.6 4.42a2.09 2.09 0 0 1-2.07 2.24zM13.63 14.22c-.77-2.3-3.37-3.79-6-3.79h-.4c-2.6 0-5.2 1.49-6 3.79L0 19.08h14.89l-1.26-4.86zm-11.22 3l.64-2.48a4.47 4.47 0 0 1 4.21-2.47h.4a4.45 4.45 0 0 1 4.2 2.47l.65 2.48H2.41z"></path>
</svg>