<svg data-testid="ShareIcon" 
  xmlns="http://www.w3.org/2000/svg" 
  xmlns:xlink="http://www.w3.org/1999/xlink" height="15" width="21" viewBox="0 0 15 21" fill="#000">
  <title>Share</title>
  <path d="M17.04 7l1.928 1.782 1.998 1.85a.18.18 0 01.027.156l-2.767 2.595-.445.415-.716.666v-2.206h-.14a9.463 9.463 0 00-2.19.251c-.963.218-1.86.66-2.618 1.289-.418.356-.793.76-1.117 1.202.083-.407.19-.808.323-1.202.153-.443.34-.874.558-1.289a3.21 3.21 0 01.192-.328c.236-.38.507-.737.812-1.064.323-.325.68-.615 1.065-.865a6.84 6.84 0 011.353-.683c.261-.095.523-.182.794-.251.286-.078.578-.133.872-.164l.029-.014a.121.121 0 00.041-.047.557.557 0 000-.19V7zm.609-7A.382.382 0 0118 .385v5.679a.175.175 0 01-.094.136.168.168 0 01-.163-.005l-1.397-1.146-.06-.132V2.511L9.258 8.286a.354.354 0 01-.455 0L1.715 2.704v9.642H9.97c.02.02.034.044.043.07a.08.08 0 010 .044.268.268 0 010 .113.443.443 0 00-.043.114 6.211 6.211 0 00-.206.604c-.06.166-.103.341-.154.516a.116.116 0 010 .07l-.051.053h-.052a.448.448 0 01-.214.07H.387a.365.365 0 01-.282-.113.38.38 0 01-.104-.29V.377C0 .167.166 0 .369 0zm-3.077 1.75H3.258l5.734 4.515 5.58-4.515z"/>
</svg>